<svg width="20" height="20" viewBox="0 0 20 20" fill="none" xmlns="http://www.w3.org/2000/svg">
<path d="M2.5 8.33341C2.5 5.19071 2.5 3.61937 3.47631 2.64306C4.45262 1.66675 6.02397 1.66675 9.16667 1.66675H10.8333C13.976 1.66675 15.5474 1.66675 16.5237 2.64306C17.5 3.61937 17.5 5.19071 17.5 8.33341V11.6667C17.5 14.8094 17.5 16.3808 16.5237 17.3571C15.5474 18.3334 13.976 18.3334 10.8333 18.3334H9.16667C6.02397 18.3334 4.45262 18.3334 3.47631 17.3571C2.5 16.3808 2.5 14.8094 2.5 11.6667V8.33341Z" stroke="white" stroke-width="1.5"/>
<path d="M5 10C5 8.8215 5 8.23223 5.36612 7.86612C5.73223 7.5 6.32149 7.5 7.5 7.5H12.5C13.6785 7.5 14.2677 7.5 14.6339 7.86612C15 8.23223 15 8.8215 15 10V13.3333C15 14.5118 15 15.1011 14.6339 15.4672C14.2677 15.8333 13.6785 15.8333 12.5 15.8333H7.5C6.32149 15.8333 5.73223 15.8333 5.36612 15.4672C5 15.1011 5 14.5118 5 13.3333V10Z" stroke="white" stroke-width="1.5"/>
<path d="M5.8335 5H10.0002" stroke="white" stroke-width="1.5" stroke-linecap="round"/>
</svg>
